<?xml version="1.0" encoding="UTF-8" standalone="no"?>
<!-- Created with Inkscape (http://www.inkscape.org/) -->

<svg
   width="512"
   height="512"
   viewBox="0 0 135.46667 135.46667"
   version="1.1"
   id="svg1"
   xml:space="preserve"
   inkscape:version="1.4.2 (2aeb623e1d, 2025-05-12)"
   sodipodi:docname="logo-001-dark-halo-no-text-25-per-cent.svg"
   inkscape:export-filename="../2976867b/logo-001-dark-halo.png"
   inkscape:export-xdpi="96"
   inkscape:export-ydpi="96"
   xmlns:inkscape="http://www.inkscape.org/namespaces/inkscape"
   xmlns:sodipodi="http://sodipodi.sourceforge.net/DTD/sodipodi-0.dtd"
   xmlns="http://www.w3.org/2000/svg"
   xmlns:svg="http://www.w3.org/2000/svg"><sodipodi:namedview
     id="namedview1"
     pagecolor="#1a1a1a"
     bordercolor="#666666"
     borderopacity="1.0"
     inkscape:showpageshadow="2"
     inkscape:pageopacity="0.0"
     inkscape:pagecheckerboard="0"
     inkscape:deskcolor="#d1d1d1"
     inkscape:document-units="mm"
     inkscape:zoom="1.0494603"
     inkscape:cx="186.76266"
     inkscape:cy="288.2434"
     inkscape:window-width="1920"
     inkscape:window-height="1014"
     inkscape:window-x="0"
     inkscape:window-y="0"
     inkscape:window-maximized="1"
     inkscape:current-layer="layer2"
     showgrid="false" /><defs
     id="defs1"><inkscape:path-effect
       effect="spiro"
       id="path-effect12"
       is_visible="true"
       lpeversion="1" /><inkscape:path-effect
       effect="spiro"
       id="path-effect10"
       is_visible="true"
       lpeversion="1" /><inkscape:path-effect
       effect="spiro"
       id="path-effect9"
       is_visible="true"
       lpeversion="1" /><inkscape:path-effect
       effect="spiro"
       id="path-effect7"
       is_visible="true"
       lpeversion="1" /><inkscape:path-effect
       effect="spiro"
       id="path-effect6"
       is_visible="true"
       lpeversion="1" /><inkscape:path-effect
       effect="spiro"
       id="path-effect5"
       is_visible="true"
       lpeversion="1" /><inkscape:path-effect
       effect="spiro"
       id="path-effect3"
       is_visible="true"
       lpeversion="1" /><inkscape:path-effect
       effect="spiro"
       id="path-effect3-3"
       is_visible="true"
       lpeversion="1" /><inkscape:path-effect
       effect="spiro"
       id="path-effect5-3"
       is_visible="true"
       lpeversion="1" /><inkscape:path-effect
       effect="spiro"
       id="path-effect6-8"
       is_visible="true"
       lpeversion="1" /><inkscape:path-effect
       effect="spiro"
       id="path-effect7-6"
       is_visible="true"
       lpeversion="1" /><inkscape:path-effect
       effect="spiro"
       id="path-effect9-0"
       is_visible="true"
       lpeversion="1" /><inkscape:path-effect
       effect="spiro"
       id="path-effect10-4"
       is_visible="true"
       lpeversion="1" /><inkscape:path-effect
       effect="spiro"
       id="path-effect12-8"
       is_visible="true"
       lpeversion="1" /><filter
       inkscape:collect="always"
       style="color-interpolation-filters:sRGB"
       id="filter41"
       x="-0.098062289"
       y="-0.097182041"
       width="1.1961246"
       height="1.1853877"><feGaussianBlur
         inkscape:collect="always"
         stdDeviation="1.2240713"
         id="feGaussianBlur41" /></filter></defs><g
     inkscape:groupmode="layer"
     id="layer2"
     inkscape:label="logo"
     style="display:inline"><g
       id="g41"
       transform="matrix(2.2491971,0,0,2.2491555,96.749378,-69.874642)"
       style="stroke:#2e2e2e;stroke-width:4;stroke-dasharray:none;stroke-opacity:1;filter:url(#filter41)"><path
         id="path27"
         style="display:inline;fill:none;stroke:#2e2e2e;stroke-width:4;stroke-linecap:round;stroke-dasharray:none;stroke-opacity:1"
         d="M 12.276114,61.181535 A 25.176708,25.176708 0 0 1 -12.900592,86.358241 25.176708,25.176708 0 0 1 -38.0773,61.181535 25.176708,25.176708 0 0 1 -12.900592,36.004828 25.176708,25.176708 0 0 1 12.276114,61.181535 Z" /><path
         id="path28"
         style="display:inline;fill:none;stroke:#2e2e2e;stroke-width:4;stroke-linecap:round;stroke-dasharray:none;stroke-opacity:1"
         d="m -26.900774,55.776432 a 1.966956,1.966956 0 0 1 -1.966957,1.966957 1.966956,1.966956 0 0 1 -1.966956,-1.966957 1.966956,1.966956 0 0 1 1.966956,-1.966958 1.966956,1.966956 0 0 1 1.966957,1.966958 z" /><path
         id="path29"
         style="display:inline;fill:none;stroke:#2e2e2e;stroke-width:4;stroke-linecap:round;stroke-dasharray:none;stroke-opacity:1"
         d="m -19.80644,49.351745 a 1.966956,1.966956 0 0 1 -1.966956,1.966952 1.966956,1.966956 0 0 1 -1.966956,-1.966952 1.966956,1.966956 0 0 1 1.966956,-1.966958 1.966956,1.966956 0 0 1 1.966956,1.966958 z" /><path
         id="path30"
         style="display:inline;fill:none;stroke:#2e2e2e;stroke-width:4;stroke-linecap:round;stroke-dasharray:none;stroke-opacity:1"
         d="m -10.963292,44.972325 a 1.966956,1.966956 0 0 1 -1.966958,1.966956 1.966956,1.966956 0 0 1 -1.966952,-1.966956 1.966956,1.966956 0 0 1 1.966952,-1.966956 1.966956,1.966956 0 0 1 1.966958,1.966956 z" /><path
         id="path31"
         style="display:inline;fill:none;stroke:#2e2e2e;stroke-width:4;stroke-linecap:round;stroke-dasharray:none;stroke-opacity:1"
         d="m -2.0593533,49.361937 a 1.966956,1.966956 0 0 1 -1.966953,1.966958 1.966956,1.966956 0 0 1 -1.966957,-1.966958 1.966956,1.966956 0 0 1 1.966957,-1.966956 1.966956,1.966956 0 0 1 1.966953,1.966956 z" /><path
         id="path32"
         style="display:inline;fill:none;stroke:#2e2e2e;stroke-width:4;stroke-linecap:round;stroke-dasharray:none;stroke-opacity:1"
         d="m 5.0721667,55.859655 a 1.966956,1.966956 0 0 1 -1.966958,1.966958 1.966956,1.966956 0 0 1 -1.966952,-1.966958 1.966956,1.966956 0 0 1 1.966952,-1.966952 1.966956,1.966956 0 0 1 1.966958,1.966952 z" /><path
         id="path33"
         style="display:inline;fill:none;stroke:#2e2e2e;stroke-width:4;stroke-linecap:round;stroke-dasharray:none;stroke-opacity:1"
         d="m 5.0449367,66.809105 a 1.966956,1.966956 0 0 1 -1.966958,1.966957 1.966956,1.966956 0 0 1 -1.966957,-1.966957 1.966956,1.966956 0 0 1 1.966957,-1.966953 1.966956,1.966956 0 0 1 1.966958,1.966953 z" /><path
         id="path34"
         style="display:inline;fill:none;stroke:#2e2e2e;stroke-width:4;stroke-linecap:round;stroke-dasharray:none;stroke-opacity:1"
         d="m -26.829891,66.789206 a 1.966956,1.966956 0 0 1 -1.966956,1.966952 1.966956,1.966956 0 0 1 -1.966956,-1.966952 1.966956,1.966956 0 0 1 1.966956,-1.966958 1.966956,1.966956 0 0 1 1.966956,1.966958 z" /><path
         style="display:inline;fill:none;fill-rule:evenodd;stroke:#2e2e2e;stroke-width:4;stroke-linecap:butt;stroke-linejoin:miter;stroke-dasharray:none;stroke-opacity:1"
         d="m -20.766536,51.075738 8.001178,8.334561 0.133351,27.40403"
         id="path35" /><path
         style="display:inline;fill:none;fill-rule:evenodd;stroke:#2e2e2e;stroke-width:4;stroke-linecap:butt;stroke-linejoin:miter;stroke-dasharray:none;stroke-opacity:1"
         d="m -4.8326703,51.075738 -8.0011777,8.334561 0.621007,-0.318633"
         id="path36"
         sodipodi:nodetypes="ccc" /><path
         style="display:inline;fill:none;fill-rule:evenodd;stroke:#2e2e2e;stroke-width:4;stroke-linecap:butt;stroke-linejoin:miter;stroke-dasharray:none;stroke-opacity:1"
         d="m -12.853448,46.754438 0.188594,12.49406"
         id="path37" /><path
         style="display:inline;fill:none;fill-rule:evenodd;stroke:#2e2e2e;stroke-width:4;stroke-linecap:butt;stroke-linejoin:miter;stroke-dasharray:none;stroke-opacity:1"
         d="m -27.37484,57.3626 9.618066,10.608162 0.235738,11.833995 -3.724645,4.573298"
         id="path38" /><path
         style="display:inline;fill:none;fill-rule:evenodd;stroke:#2e2e2e;stroke-width:4;stroke-linecap:butt;stroke-linejoin:miter;stroke-dasharray:none;stroke-opacity:1"
         d="m 1.6076737,57.409747 -9.618066,10.608162 -0.235738,11.833995 3.724645,4.573298"
         id="path39" /><path
         style="display:inline;fill:none;fill-rule:evenodd;stroke:#2e2e2e;stroke-width:4;stroke-linecap:butt;stroke-linejoin:miter;stroke-dasharray:none;stroke-opacity:1"
         d="m -26.47904,67.027816 8.062202,0.09429"
         id="path40" /><path
         style="display:inline;fill:none;fill-rule:evenodd;stroke:#2e2e2e;stroke-width:4;stroke-linecap:butt;stroke-linejoin:miter;stroke-dasharray:none;stroke-opacity:1"
         d="m 1.2907737,66.933521 -8.062202,0.09429"
         id="path41" /></g><g
       id="g25"
       transform="matrix(2.2491971,0,0,2.2491555,96.749378,-69.874642)"
       style="stroke:#191919;stroke-opacity:1"><path
         id="path1"
         style="display:inline;fill:none;stroke:#191919;stroke-width:2.6447;stroke-linecap:round;stroke-opacity:1"
         d="M 12.276114,61.181535 A 25.176708,25.176708 0 0 1 -12.900592,86.358241 25.176708,25.176708 0 0 1 -38.0773,61.181535 25.176708,25.176708 0 0 1 -12.900592,36.004828 25.176708,25.176708 0 0 1 12.276114,61.181535 Z" /><path
         id="path2"
         style="display:inline;fill:none;stroke:#191919;stroke-width:1.58682;stroke-linecap:round;stroke-opacity:1"
         d="m -26.900774,55.776432 a 1.966956,1.966956 0 0 1 -1.966957,1.966957 1.966956,1.966956 0 0 1 -1.966956,-1.966957 1.966956,1.966956 0 0 1 1.966956,-1.966958 1.966956,1.966956 0 0 1 1.966957,1.966958 z" /><path
         id="path2-8"
         style="display:inline;fill:none;stroke:#191919;stroke-width:1.58682;stroke-linecap:round;stroke-opacity:1"
         d="m -19.80644,49.351745 a 1.966956,1.966956 0 0 1 -1.966956,1.966952 1.966956,1.966956 0 0 1 -1.966956,-1.966952 1.966956,1.966956 0 0 1 1.966956,-1.966958 1.966956,1.966956 0 0 1 1.966956,1.966958 z" /><path
         id="path2-8-4"
         style="display:inline;fill:none;stroke:#191919;stroke-width:1.58682;stroke-linecap:round;stroke-opacity:1"
         d="m -10.963292,44.972325 a 1.966956,1.966956 0 0 1 -1.966958,1.966956 1.966956,1.966956 0 0 1 -1.966952,-1.966956 1.966956,1.966956 0 0 1 1.966952,-1.966956 1.966956,1.966956 0 0 1 1.966958,1.966956 z" /><path
         id="path2-8-4-6"
         style="display:inline;fill:none;stroke:#191919;stroke-width:1.58682;stroke-linecap:round;stroke-opacity:1"
         d="m -2.0593533,49.361937 a 1.966956,1.966956 0 0 1 -1.966953,1.966958 1.966956,1.966956 0 0 1 -1.966957,-1.966958 1.966956,1.966956 0 0 1 1.966957,-1.966956 1.966956,1.966956 0 0 1 1.966953,1.966956 z" /><path
         id="path2-8-4-9"
         style="display:inline;fill:none;stroke:#191919;stroke-width:1.58682;stroke-linecap:round;stroke-opacity:1"
         d="m 5.0721667,55.859655 a 1.966956,1.966956 0 0 1 -1.966958,1.966958 1.966956,1.966956 0 0 1 -1.966952,-1.966958 1.966956,1.966956 0 0 1 1.966952,-1.966952 1.966956,1.966956 0 0 1 1.966958,1.966952 z" /><path
         id="path2-8-4-8"
         style="display:inline;fill:none;stroke:#191919;stroke-width:1.58682;stroke-linecap:round;stroke-opacity:1"
         d="m 5.0449367,66.809105 a 1.966956,1.966956 0 0 1 -1.966958,1.966957 1.966956,1.966956 0 0 1 -1.966957,-1.966957 1.966956,1.966956 0 0 1 1.966957,-1.966953 1.966956,1.966956 0 0 1 1.966958,1.966953 z" /><path
         id="path2-8-4-85"
         style="display:inline;fill:none;stroke:#191919;stroke-width:1.58682;stroke-linecap:round;stroke-opacity:1"
         d="m -26.829891,66.789206 a 1.966956,1.966956 0 0 1 -1.966956,1.966952 1.966956,1.966956 0 0 1 -1.966956,-1.966952 1.966956,1.966956 0 0 1 1.966956,-1.966958 1.966956,1.966956 0 0 1 1.966956,1.966958 z" /><path
         style="display:inline;fill:none;fill-rule:evenodd;stroke:#191919;stroke-width:2.38023;stroke-linecap:butt;stroke-linejoin:miter;stroke-dasharray:none;stroke-opacity:1"
         d="m -20.766536,51.075738 8.001178,8.334561 0.133351,27.40403"
         id="path3" /><path
         style="display:inline;fill:none;fill-rule:evenodd;stroke:#191919;stroke-width:2.38023;stroke-linecap:butt;stroke-linejoin:miter;stroke-dasharray:none;stroke-opacity:1"
         d="m -4.8326703,51.075738 -8.0011777,8.334561 0.621007,-0.318633"
         id="path4"
         sodipodi:nodetypes="ccc" /><path
         style="display:inline;fill:none;fill-rule:evenodd;stroke:#191919;stroke-width:2.38023;stroke-linecap:butt;stroke-linejoin:miter;stroke-dasharray:none;stroke-opacity:1"
         d="m -12.853448,46.754438 0.188594,12.49406"
         id="path5" /><path
         style="display:inline;fill:none;fill-rule:evenodd;stroke:#191919;stroke-width:2.38023;stroke-linecap:butt;stroke-linejoin:miter;stroke-dasharray:none;stroke-opacity:1"
         d="m -27.37484,57.3626 9.618066,10.608162 0.235738,11.833995 -3.724645,4.573298"
         id="path6" /><path
         style="display:inline;fill:none;fill-rule:evenodd;stroke:#191919;stroke-width:2.38023;stroke-linecap:butt;stroke-linejoin:miter;stroke-dasharray:none;stroke-opacity:1"
         d="m 1.6076737,57.409747 -9.618066,10.608162 -0.235738,11.833995 3.724645,4.573298"
         id="path7" /><path
         style="display:inline;fill:none;fill-rule:evenodd;stroke:#191919;stroke-width:2.38023;stroke-linecap:butt;stroke-linejoin:miter;stroke-dasharray:none;stroke-opacity:1"
         d="m -26.47904,67.027816 8.062202,0.09429"
         id="path9" /><path
         style="display:inline;fill:none;fill-rule:evenodd;stroke:#191919;stroke-width:2.38023;stroke-linecap:butt;stroke-linejoin:miter;stroke-dasharray:none;stroke-opacity:1"
         d="m 1.2907737,66.933521 -8.062202,0.09429"
         id="path10" /></g></g></svg>